<svg width="16" height="12" viewBox="0 0 16 12" fill="none" xmlns="http://www.w3.org/2000/svg">
<path d="M7.09358 11.6802C6.87926 11.885 6.58862 12 6.28557 12C5.98252 12 5.69187 11.885 5.47755 11.6802L0.334619 6.76556C0.120362 6.56075 0 6.28301 0 5.99341C0 5.70381 0.120362 5.42606 0.334619 5.22126L5.47755 0.30658C5.6931 0.107635 5.98179 -0.00244617 6.28145 4.19617e-05C6.58111 0.0025301 6.86776 0.117391 7.07966 0.319883C7.29155 0.522377 7.41175 0.796303 7.41435 1.08266C7.41696 1.36902 7.30176 1.6449 7.09358 1.85088L3.99982 4.90126H14.8571C15.1602 4.90126 15.4509 5.01632 15.6653 5.22114C15.8796 5.42596 16 5.70375 16 5.99341C16 6.28306 15.8796 6.56086 15.6653 6.76567C15.4509 6.97049 15.1602 7.08556 14.8571 7.08556H3.99982L7.09358 10.1359C7.30783 10.3407 7.4282 10.6185 7.4282 10.9081C7.4282 11.1977 7.30783 11.4754 7.09358 11.6802Z" fill="#034A6E"/>
</svg>
