<svg width="13" height="10" viewBox="0 0 13 10" fill="none" xmlns="http://www.w3.org/2000/svg">
<path d="M5.76353 9.73353C5.5894 9.90415 5.35325 10 5.10702 10C4.8608 10 4.62465 9.90415 4.45051 9.73353L0.271878 5.63796C0.0977951 5.46729 5.37178e-07 5.23584 5.1608e-07 4.99451C4.94982e-07 4.75317 0.097795 4.52172 0.271878 4.35105L4.45051 0.255483C4.62565 0.0896967 4.86021 -0.0020392 5.10368 3.40689e-05C5.34715 0.00210829 5.58005 0.0978247 5.75222 0.26657C5.92439 0.435314 6.02205 0.663585 6.02416 0.902217C6.02628 1.14085 5.93268 1.37075 5.76353 1.5424L3.24985 4.08438L12.0714 4.08438C12.3177 4.08438 12.5539 4.18027 12.728 4.35095C12.9022 4.52163 13 4.75312 13 4.9945C13 5.23589 12.9022 5.46738 12.728 5.63806C12.5539 5.80874 12.3177 5.90463 12.0714 5.90463L3.24985 5.90463L5.76353 8.44661C5.93762 8.61728 6.03541 8.84874 6.03541 9.09007C6.03541 9.3314 5.93762 9.56285 5.76353 9.73353Z" fill="#BADDE8"/>
</svg>
