<svg width="41" height="41" viewBox="0 0 41 41" fill="none" xmlns="http://www.w3.org/2000/svg">
<path d="M1 20.1638C1 22.6804 1.49569 25.1724 2.45876 27.4975C3.42183 29.8225 4.83342 31.9351 6.61294 33.7146C8.39247 35.4942 10.5051 36.9058 12.8301 37.8688C15.1552 38.8319 17.6472 39.3276 20.1638 39.3276C22.6804 39.3276 25.1724 38.8319 27.4975 37.8688C29.8225 36.9058 31.9351 35.4942 33.7146 33.7146C35.4942 31.9351 36.9058 29.8225 37.8688 27.4975C38.8319 25.1724 39.3276 22.6804 39.3276 20.1638C39.3276 15.0812 37.3085 10.2069 33.7146 6.61295C30.1207 3.01904 25.2463 1 20.1638 1C15.0812 1 10.2069 3.01904 6.61294 6.61295C3.01904 10.2069 1 15.0812 1 20.1638Z" stroke="#DAE3EC" stroke-width="2" stroke-linecap="round" stroke-linejoin="round"/>
<path d="M20.1641 9.51709V20.1636L26.552 26.5516" stroke="#DAE3EC" stroke-width="2" stroke-linecap="round" stroke-linejoin="round"/>
</svg>
