<svg width="21" height="21" viewBox="0 0 21 21" fill="none" xmlns="http://www.w3.org/2000/svg">
<path d="M10.25 13.026V1" stroke="#333C45" stroke-width="1.5" stroke-miterlimit="10" stroke-linecap="round"/>
<path d="M1 13.238V17.863C0.999869 18.1668 1.05961 18.4677 1.1758 18.7483C1.29199 19.029 1.46236 19.2841 1.67717 19.4989C1.89198 19.7137 2.14701 19.884 2.4277 20.0002C2.70838 20.1164 3.00922 20.1762 3.313 20.176H17.188C17.4917 20.176 17.7924 20.1162 18.073 20C18.3536 19.8837 18.6085 19.7133 18.8232 19.4985C19.0379 19.2837 19.2082 19.0287 19.3243 18.7481C19.4404 18.4675 19.5001 18.1667 19.5 17.863V13.238" stroke="#333C45" stroke-width="1.5" stroke-linecap="round" stroke-linejoin="round"/>
<path d="M14.875 8.78202L10.91 12.748C10.7346 12.9216 10.4978 13.0189 10.251 13.0189C10.0042 13.0189 9.76742 12.9216 9.592 12.748L5.625 8.78202" stroke="#333C45" stroke-width="1.5" stroke-linecap="round" stroke-linejoin="round"/>
</svg>
