<svg width="14" height="18" viewBox="0 0 14 18" fill="none" xmlns="http://www.w3.org/2000/svg">
<path d="M13.28 6L7.75 0.47C7.60948 0.329308 7.41885 0.250175 7.22 0.25H2.75C2.02065 0.25 1.32118 0.539731 0.805456 1.05546C0.289731 1.57118 0 2.27065 0 3V15C0 15.7293 0.289731 16.4288 0.805456 16.9445C1.32118 17.4603 2.02065 17.75 2.75 17.75H10.75C11.4793 17.75 12.1788 17.4603 12.6945 16.9445C13.2103 16.4288 13.5 15.7293 13.5 15V6.5C13.4921 6.3116 13.4136 6.13309 13.28 6ZM8 2.81L10.94 5.75H8V2.81ZM10.75 16.25H2.75C2.41848 16.25 2.10054 16.1183 1.86612 15.8839C1.6317 15.6495 1.5 15.3315 1.5 15V3C1.5 2.66848 1.6317 2.35054 1.86612 2.11612C2.10054 1.8817 2.41848 1.75 2.75 1.75H6.5V6.5C6.50259 6.69811 6.58244 6.88737 6.72253 7.02747C6.86263 7.16756 7.05189 7.24741 7.25 7.25H12V15C12 15.3315 11.8683 15.6495 11.6339 15.8839C11.3995 16.1183 11.0815 16.25 10.75 16.25Z" fill="#69C9F3"/>
<path d="M8.24001 11.8502C7.62511 11.4643 7.16236 10.8779 6.93001 10.1902C7.14532 9.54677 7.21032 8.8626 7.12001 8.19017C7.09118 8.02076 7.00856 7.86515 6.88439 7.74635C6.76022 7.62756 6.6011 7.55191 6.43058 7.53059C6.26007 7.50928 6.08722 7.54344 5.93763 7.62801C5.78804 7.71258 5.66966 7.84307 5.60001 8.00017C5.48616 8.80858 5.572 9.63257 5.85001 10.4002C5.47021 11.2874 5.04635 12.1552 4.58001 13.0002C3.87001 13.4002 2.90001 14.0002 2.75001 14.6902C2.63001 15.2502 3.68001 16.6902 5.47001 13.5702C6.26594 13.2747 7.08118 13.0341 7.91001 12.8502C8.52269 13.2005 9.20612 13.4089 9.91001 13.4602C10.0716 13.4644 10.2309 13.4207 10.3678 13.3346C10.5046 13.2486 10.613 13.124 10.6792 12.9765C10.7455 12.829 10.7667 12.6652 10.7401 12.5058C10.7136 12.3463 10.6405 12.1982 10.53 12.0802C10.11 11.6502 8.86001 11.7702 8.24001 11.8502ZM3.46001 14.8502C3.74025 14.3706 4.11034 13.9496 4.55001 13.6102C3.87001 14.6902 3.46001 14.8802 3.46001 14.8602V14.8502ZM6.38001 8.04017C6.64001 8.04017 6.62001 9.19017 6.44001 9.50017C6.30442 9.02858 6.28384 8.53135 6.38001 8.05017V8.04017ZM5.51001 12.9202C5.84882 12.302 6.1429 11.6604 6.39001 11.0002C6.65493 11.4931 7.02336 11.923 7.47001 12.2602C6.79907 12.4282 6.14343 12.6523 5.51001 12.9302V12.9202ZM10.21 12.7402C10.21 12.7402 10.03 12.9602 8.88001 12.4602C10.13 12.3802 10.34 12.6702 10.21 12.7502V12.7402Z" fill="#69C9F3"/>
</svg>
