<svg width="267" height="93" viewBox="0 0 267 93" fill="none" xmlns="http://www.w3.org/2000/svg">
<path fill-rule="evenodd" clip-rule="evenodd" d="M29.2053 11.0938C45.3347 11.0938 58.4101 24.1748 58.4101 40.311C58.4101 56.4477 45.3347 69.5287 29.2053 69.5287C13.0755 69.5287 0 56.4477 0 40.311C0 24.1748 13.0755 11.0938 29.2053 11.0938Z" fill="#B2B3B3"/>
<path fill-rule="evenodd" clip-rule="evenodd" d="M29.206 12.6523C44.4747 12.6523 56.8529 25.0358 56.8529 40.311C56.8529 55.5867 44.4747 67.9701 29.206 67.9701C13.9364 67.9701 1.55859 55.5867 1.55859 40.311C1.55859 25.0358 13.9364 12.6523 29.206 12.6523Z" fill="#EEE893"/>
<path fill-rule="evenodd" clip-rule="evenodd" d="M82.5449 73.1356V91.3231C82.5449 92.1817 81.8453 92.8816 80.987 92.8816H72.531C71.6727 92.8816 70.9727 92.1817 70.9727 91.3231V40.9335C70.9727 40.0749 71.6727 39.3749 72.531 39.3749H80.8029C81.6612 39.3749 82.3612 40.0749 82.3612 40.9335V41.0505C84.6807 39.0629 87.6616 38.1487 91.0973 38.1487C96.1344 38.1487 100.58 39.7896 103.796 43.7514C106.842 47.5042 107.913 52.1607 107.913 56.9127C107.913 62.0279 106.611 66.9046 103.061 70.7065C99.8492 74.1472 95.7666 75.7174 91.0973 75.7174C87.8285 75.7174 84.8968 74.9291 82.5449 73.1356ZM153.71 74.4912H145.315C144.457 74.4912 143.757 73.7913 143.757 72.9327V40.9335C143.757 40.0749 144.457 39.3749 145.315 39.3749H153.71C154.568 39.3749 155.268 40.0749 155.268 40.9335V72.9327C155.268 73.7913 154.568 74.4912 153.71 74.4912ZM126.162 50.9605H129.088C132.987 50.9605 136.977 51.8207 139.814 54.6805C142.004 56.8891 142.951 59.679 142.951 62.7566C142.951 71.3569 136.974 74.4912 129.067 74.4912H116.209C115.351 74.4912 114.652 73.7913 114.652 72.9327V40.9335C114.652 40.0749 115.351 39.3749 116.209 39.3749H124.604C125.462 39.3749 126.162 40.0749 126.162 40.9335V50.9605ZM183.371 49.5418H176.009V61.888C176.009 65.2197 175.666 69.7192 173.475 72.4145C171.721 74.5707 169.022 75.2268 166.353 75.2268C164.309 75.2268 162.2 74.9331 160.347 74.0262C159.8 73.7585 159.474 73.2359 159.474 72.6262V65.2085C159.474 64.6408 159.753 64.153 160.242 63.8649C160.731 63.5773 161.293 63.5701 161.789 63.8461C162.471 64.2253 163.292 64.5693 164.086 64.5693C164.132 64.5693 164.211 64.5657 164.254 64.5425C164.727 64.2872 164.805 62.3127 164.805 61.8781V40.9335C164.805 40.0749 165.505 39.3749 166.363 39.3749H193.324C194.182 39.3749 194.882 40.0749 194.882 40.9335V72.9327C194.882 73.7913 194.182 74.4912 193.324 74.4912H184.93C184.071 74.4912 183.371 73.7913 183.371 72.9327V49.5418ZM215.675 50.9605H219.509C223.408 50.9605 227.403 51.8179 230.237 54.6821C232.422 56.8907 233.383 59.6667 233.383 62.7566C233.383 71.3457 227.422 74.4912 219.519 74.4912H205.722C204.864 74.4912 204.164 73.7913 204.164 72.9327V40.9335C204.164 40.0749 204.864 39.3749 205.722 39.3749H214.117C214.975 39.3749 215.675 40.0749 215.675 40.9335V50.9605ZM255.012 63.1506H254.53L247.85 73.7633C247.556 74.2295 247.082 74.4912 246.531 74.4912H237.084C236.49 74.4912 235.981 74.1832 235.705 73.6566C235.429 73.13 235.465 72.5351 235.803 72.0461L243.397 61.0582C239.667 59.0566 237.549 55.8036 237.549 51.2322C237.549 47.9672 238.621 45.0806 241.05 42.8668C243.993 40.184 247.981 39.3749 251.852 39.3749H264.965C265.823 39.3749 266.523 40.0749 266.523 40.9335V72.9327C266.523 73.7913 265.823 74.4912 264.965 74.4912H256.57C255.712 74.4912 255.012 73.7913 255.012 72.9327V63.1506ZM95.7278 56.9127C95.7278 54.5531 95.3704 51.4383 93.4016 49.8362C92.2442 48.8949 90.7243 48.6224 89.269 48.6224C87.7622 48.6224 86.2103 48.9089 84.9994 49.8618C82.753 51.6297 82.3612 55.1983 82.3612 57.8424C82.3612 59.6998 82.7586 61.5281 84.0078 62.956C85.2562 64.3827 86.9291 64.8761 88.7894 64.8761C94.0226 64.8761 95.7278 61.8549 95.7278 56.9127ZM126.162 60.6371V64.8146H127.862C128.713 64.8146 130.252 64.7155 130.822 63.9524C131.072 63.6184 131.134 63.1626 131.134 62.7566C131.134 62.1785 130.917 61.7794 130.482 61.4046C129.768 60.7901 128.774 60.6371 127.862 60.6371H126.162ZM215.675 60.6371V64.8146H218.273C219.127 64.8146 220.684 64.7159 221.256 63.948C221.505 63.6148 221.566 63.161 221.566 62.7566C221.566 62.1785 221.349 61.7794 220.914 61.4046C220.197 60.7889 219.186 60.6371 218.273 60.6371H215.675ZM255.012 54.1483V49.0515H253.251C252.229 49.0515 250.361 49.1694 249.693 50.1083C249.435 50.4711 249.366 50.9397 249.366 51.3752C249.366 51.9717 249.463 52.6329 249.846 53.1136C250.564 54.0145 252.2 54.1483 253.251 54.1483H255.012Z" fill="#FEFEFE"/>
<path d="M106.353 56.9127C106.353 62.2253 104.872 66.4655 101.921 69.6426C99.092 72.6566 95.487 74.1585 91.0956 74.1585C86.3468 74.1585 82.9151 72.381 80.8013 68.8355C80.8013 69.2546 80.832 69.8983 80.8931 70.7669C80.9546 71.635 80.9854 72.3606 80.9854 72.9327V91.3231H72.5293V40.9335H80.8013V45.5413C82.8336 41.6487 86.2649 39.7078 91.0956 39.7078C96.0181 39.7078 99.8476 41.383 102.585 44.7343C105.097 47.8502 106.353 51.9062 106.353 56.9127ZM97.2845 56.9127C97.2845 50.3433 94.6088 47.0635 89.2673 47.0635C83.6199 47.0635 80.8013 50.6601 80.8013 57.8425C80.8013 60.3763 81.4754 62.4195 82.8336 63.9828C84.2737 65.6173 86.2549 66.4348 88.7877 66.4348C94.4554 66.4348 97.2845 63.2573 97.2845 56.9127ZM153.708 72.9327H145.314V40.9335H153.708V72.9327ZM141.392 62.7567C141.392 69.5407 137.286 72.9327 129.066 72.9327H116.208V40.9335H124.602V52.5195H129.086C133.344 52.5195 136.551 53.6022 138.706 55.7785C140.493 57.5768 141.392 59.906 141.392 62.7567ZM132.691 62.7567C132.691 61.7351 132.292 60.8973 131.496 60.2229C130.618 59.4566 129.413 59.0786 127.86 59.0786H124.602V66.3732H127.86C131.077 66.3732 132.691 65.1678 132.691 62.7567ZM193.322 72.9327H184.928V47.9832H174.45V61.8881C174.45 66.4551 173.725 69.6326 172.264 71.4309C171.049 72.9223 169.078 73.6683 166.351 73.6683C164.217 73.6683 162.45 73.3211 161.03 72.6263V65.2086C162.134 65.8219 163.145 66.1283 164.084 66.1283C165.606 66.1283 166.362 64.708 166.362 61.8781V40.9335H193.322V72.9327ZM231.824 62.7567C231.824 69.5407 227.718 72.9327 219.517 72.9327H205.721V40.9335H214.115V52.5195H219.507C223.786 52.5195 226.993 53.6022 229.128 55.7785C230.925 57.5768 231.824 59.906 231.824 62.7567ZM223.122 62.7567C223.122 61.7351 222.724 60.8973 221.928 60.2229C221.049 59.4566 219.834 59.0786 218.272 59.0786H214.115V66.3732H218.272C221.509 66.3732 223.122 65.1678 223.122 62.7567ZM264.963 72.9327H256.568V61.592H253.668L246.53 72.9327H237.083L245.733 60.417C241.311 58.7006 239.105 55.6458 239.105 51.2322C239.105 48.2385 240.106 45.8378 242.097 44.0191C244.354 41.9655 247.602 40.9335 251.85 40.9335H264.963V72.9327ZM256.568 55.707V47.4926H253.249C249.624 47.4926 247.806 48.7903 247.806 51.3753C247.806 54.2667 249.624 55.707 253.249 55.707H256.568Z" fill="#034A6E"/>
<path fill-rule="evenodd" clip-rule="evenodd" d="M150.391 80.9624C150.427 81.0519 150.446 81.1498 150.446 81.2517V84.3648L155.274 80.1078C155.515 79.8953 155.838 79.8469 156.131 79.9792C156.423 80.111 156.6 80.3859 156.6 80.7067V90.7893C156.6 91.2292 156.242 91.5879 155.802 91.5879H153.3C152.86 91.5879 152.502 91.2292 152.502 90.7893V87.4816L147.687 91.9243C147.448 92.1441 147.122 92.1988 146.825 92.069C146.528 91.9387 146.347 91.6614 146.347 91.3374V81.2517C146.347 80.8118 146.706 80.453 147.145 80.453H149.406C149.393 80.4438 149.38 80.4342 149.368 80.4247C148.513 79.7794 148.122 78.8613 148.122 77.7985C148.122 77.3587 148.48 76.9999 148.92 76.9999H150.819C151.128 76.9999 151.395 77.1761 151.528 77.4326C151.661 77.1761 151.93 76.9999 152.238 76.9999H154.155C154.595 76.9999 154.954 77.3587 154.954 77.7985C154.954 78.8653 154.556 79.7842 153.695 80.4271C153.056 80.9049 152.32 81.137 151.522 81.137C151.128 81.137 150.75 81.0795 150.391 80.9624ZM96.4514 89.1564V90.7893C96.4514 91.2292 96.0928 91.5879 95.6531 91.5879H93.1874C92.7477 91.5879 92.3891 91.2292 92.3891 90.7893V89.15L90.9158 91.2483C90.7613 91.4681 90.5309 91.5879 90.2625 91.5879H86.9961C86.6802 91.5879 86.4098 91.4165 86.2749 91.1309C86.1395 90.8452 86.1786 90.5272 86.3791 90.2827L90.1003 85.7424L86.7006 81.7715C86.4929 81.529 86.4482 81.2077 86.5816 80.9181C86.715 80.628 86.9881 80.453 87.3068 80.453H90.5213C90.7848 80.453 91.0121 80.5689 91.167 80.7826L92.3891 82.4671V81.2517C92.3891 80.8118 92.7477 80.453 93.1874 80.453H95.6531C96.0928 80.453 96.4514 80.8118 96.4514 81.2517V82.4671L97.6734 80.7826C97.8284 80.5689 98.0556 80.453 98.3196 80.453H101.53C101.85 80.453 102.122 80.628 102.256 80.9177C102.389 81.2077 102.344 81.529 102.137 81.7711L98.7397 85.742L102.461 90.2827C102.662 90.5272 102.701 90.8452 102.566 91.1309C102.431 91.4165 102.16 91.5879 101.844 91.5879H98.5688C98.3004 91.5879 98.0692 91.4677 97.915 91.2475L96.4514 89.1564ZM110.893 87.4816L106.078 91.9243C105.839 92.1441 105.513 92.1988 105.216 92.069C104.919 91.9387 104.738 91.6614 104.738 91.3374V81.2517C104.738 80.8118 105.096 80.453 105.536 80.453H108.038C108.478 80.453 108.837 80.8118 108.837 81.2517V84.364L113.665 80.1046C113.906 79.8925 114.229 79.8437 114.522 79.976C114.814 80.1082 114.991 80.3827 114.991 80.7039V90.7893C114.991 91.2292 114.633 91.5879 114.193 91.5879H111.691C111.251 91.5879 110.893 91.2292 110.893 90.7893V87.4816ZM124.304 84.1515H122.777V87.4975C122.777 88.5811 122.658 89.971 121.947 90.8456C121.358 91.5704 120.466 91.8073 119.565 91.8073C118.903 91.8073 118.228 91.7086 117.629 91.4153C117.348 91.2779 117.181 91.0102 117.181 90.6978V88.4872C117.181 88.1963 117.324 87.9462 117.574 87.7988C117.825 87.6514 118.113 87.6478 118.367 87.7888C118.473 87.8475 118.605 87.9107 118.735 87.9422C118.764 87.7944 118.77 87.5842 118.77 87.4943V81.2517C118.77 80.8118 119.129 80.453 119.568 80.453H127.604C128.044 80.453 128.402 80.8118 128.402 81.2517V90.7893C128.402 91.2292 128.044 91.5879 127.604 91.5879H125.102C124.662 91.5879 124.304 91.2292 124.304 90.7893V84.1515ZM143.411 86.0145C143.411 87.6274 142.865 89.0493 141.729 90.1996C140.542 91.401 139.053 91.9535 137.372 91.9535C135.69 91.9535 134.201 91.401 133.014 90.1996C131.879 89.0493 131.332 87.6274 131.332 86.0145C131.332 84.4044 131.88 82.9868 133.015 81.8406C134.203 80.6412 135.691 80.0879 137.372 80.0879C139.053 80.0879 140.54 80.6416 141.728 81.8406C142.863 82.9868 143.411 84.4044 143.411 86.0145ZM166.63 89.0793V90.7893C166.63 91.2292 166.271 91.5879 165.832 91.5879H163.33C162.89 91.5879 162.531 91.2292 162.531 90.7893V81.2517C162.531 80.8118 162.89 80.453 163.33 80.453H165.832C166.271 80.453 166.63 80.8118 166.63 81.2517V82.6077L168.073 80.7603C168.229 80.5597 168.448 80.453 168.702 80.453H171.907C172.229 80.453 172.505 80.6324 172.636 80.9269C172.768 81.2217 172.716 81.5465 172.501 81.7863L168.935 85.7488L172.743 90.2751C172.948 90.518 172.99 90.838 172.856 91.1261C172.722 91.4145 172.45 91.5879 172.132 91.5879H168.86C168.596 91.5879 168.37 91.4725 168.215 91.2587L166.63 89.0793ZM186.464 86.0145C186.464 87.6274 185.917 89.0493 184.781 90.1996C183.595 91.401 182.105 91.9535 180.424 91.9535C178.743 91.9535 177.253 91.401 176.066 90.1996C174.931 89.0493 174.384 87.6274 174.384 86.0145C174.384 84.4044 174.932 82.9868 176.067 81.8406C177.255 80.6412 178.743 80.0879 180.424 80.0879C182.105 80.0879 183.592 80.6416 184.78 81.8406C185.915 82.9868 186.464 84.4044 186.464 86.0145ZM197.163 88.8775L195.583 91.6259C195.437 91.8808 195.185 92.0266 194.891 92.0266C194.598 92.0266 194.346 91.8804 194.199 91.6259L192.622 88.8807L192.145 90.9671C192.061 91.3346 191.743 91.5879 191.366 91.5879H188.828C188.574 91.5879 188.357 91.4821 188.2 91.2827C188.044 91.0833 187.992 90.8468 188.052 90.6007L190.505 80.5058C190.584 80.1821 190.838 79.9516 191.167 79.9041C191.497 79.8565 191.806 80.0063 191.972 80.2948L194.903 85.3629L197.822 80.3104C197.989 80.0219 198.297 79.8717 198.627 79.9193C198.957 79.9672 199.211 80.1981 199.289 80.5217L201.73 90.6011C201.79 90.8472 201.738 91.0841 201.582 91.2831C201.425 91.4821 201.207 91.5879 200.955 91.5879H198.419C198.042 91.5879 197.725 91.3346 197.641 90.9671L197.163 88.8775ZM210.179 84.243H208.124V90.7893C208.124 91.2292 207.765 91.5879 207.325 91.5879H204.823C204.383 91.5879 204.025 91.2292 204.025 90.7893V81.2517C204.025 80.8118 204.383 80.453 204.823 80.453H213.48C213.919 80.453 214.278 80.8118 214.278 81.2517V90.7893C214.278 91.2292 213.919 91.5879 213.48 91.5879H210.978C210.538 91.5879 210.179 91.2292 210.179 90.7893V84.243ZM223.588 84.1515H222.061V87.4975C222.061 88.5811 221.942 89.971 221.231 90.8456C220.641 91.5704 219.75 91.8073 218.849 91.8073C218.187 91.8073 217.512 91.7086 216.913 91.4153C216.632 91.2779 216.465 91.0102 216.465 90.6978V88.4872C216.465 88.1963 216.608 87.9462 216.858 87.7988C217.109 87.6514 217.397 87.6478 217.651 87.7888C217.756 87.8475 217.889 87.9107 218.018 87.9422C218.048 87.7944 218.054 87.5842 218.054 87.4943V81.2517C218.054 80.8118 218.413 80.453 218.852 80.453H226.888C227.328 80.453 227.686 80.8118 227.686 81.2517V90.7893C227.686 91.2292 227.328 91.5879 226.888 91.5879H224.386C223.946 91.5879 223.588 91.2292 223.588 90.7893V84.1515ZM234.928 86.9286C234.994 87.2003 235.106 87.458 235.284 87.6749C235.614 88.0761 236.063 88.1999 236.567 88.1999C237.129 88.1999 237.802 88.12 238.02 87.5199C238.137 87.1983 238.429 86.9941 238.771 86.9941H241.368C241.637 86.9941 241.869 87.1156 242.023 87.3369C242.177 87.5583 242.21 87.818 242.116 88.0709C241.691 89.2163 241.04 90.2967 240.022 91.0058C239.008 91.7126 237.785 91.9535 236.567 91.9535C234.868 91.9535 233.347 91.4173 232.176 90.1656C231.096 89.0102 230.616 87.589 230.616 86.0145C230.616 84.3956 231.188 82.9832 232.325 81.8298C233.483 80.6556 234.921 80.0879 236.567 80.0879C238.165 80.0879 239.645 80.5445 240.794 81.6832C242.003 82.881 242.458 84.4567 242.458 86.13C242.458 86.5702 242.099 86.9286 241.659 86.9286H234.928ZM249.489 89.0793V90.7893C249.489 91.2292 249.131 91.5879 248.691 91.5879H246.189C245.749 91.5879 245.39 91.2292 245.39 90.7893V81.2517C245.39 80.8118 245.749 80.453 246.189 80.453H248.691C249.131 80.453 249.489 80.8118 249.489 81.2517V82.6077L250.932 80.7603C251.088 80.5597 251.307 80.453 251.561 80.453H254.766C255.089 80.453 255.364 80.6324 255.496 80.9269C255.627 81.2217 255.575 81.5465 255.36 81.7863L251.794 85.7488L255.602 90.2751C255.807 90.518 255.85 90.838 255.715 91.1261C255.581 91.4145 255.309 91.5879 254.992 91.5879H251.719C251.456 91.5879 251.229 91.4725 251.074 91.2587L249.489 89.0793ZM266.511 91.2487C265.544 91.6543 264.515 91.9167 263.463 91.9167C261.818 91.9167 260.304 91.4493 259.076 90.3366C257.82 89.1995 257.243 87.7289 257.243 86.0417C257.243 84.3768 257.835 82.9329 259.044 81.7843C260.27 80.6184 261.777 80.0879 263.463 80.0879C264.52 80.0879 265.547 80.3435 266.516 80.7583C266.816 80.8865 267 81.1658 267 81.4926V84.1171C267 84.4116 266.854 84.6641 266.599 84.8103C266.344 84.9565 266.052 84.9549 265.798 84.8063C265.203 84.4575 264.359 84.042 263.651 84.042C262.215 84.042 261.561 84.5814 261.561 86.0417C261.561 87.4816 262.256 87.9626 263.651 87.9626C264.428 87.9626 265.103 87.6729 265.71 87.1971C265.956 87.0045 266.27 86.9714 266.552 87.1084C266.833 87.2454 267 87.5131 267 87.8264V90.512C267 90.8408 266.814 91.1217 266.511 91.2487ZM139.112 86.0145C139.112 85.4599 139.008 84.8614 138.607 84.4487C138.272 84.1035 137.849 83.9873 137.378 83.9873C136.905 83.9873 136.481 84.1027 136.145 84.4487C135.741 84.8646 135.631 85.4539 135.631 86.0145C135.631 86.5762 135.74 87.1663 136.145 87.583C136.483 87.9306 136.899 88.0537 137.378 88.0537C137.854 88.0537 138.27 87.9318 138.606 87.585C139.007 87.1691 139.112 86.5722 139.112 86.0145ZM182.164 86.0145C182.164 85.4599 182.06 84.8614 181.659 84.4487C181.324 84.1035 180.901 83.9873 180.43 83.9873C179.958 83.9873 179.534 84.1027 179.197 84.4487C178.793 84.8646 178.683 85.4539 178.683 86.0145C178.683 86.5762 178.792 87.1663 179.197 87.583C179.535 87.9306 179.951 88.0537 180.43 88.0537C180.906 88.0537 181.323 87.9318 181.657 87.585C182.059 87.1691 182.164 86.5722 182.164 86.0145ZM236.787 83.7236C236.717 83.7168 236.643 83.7132 236.567 83.7132C236.494 83.7132 236.423 83.7168 236.356 83.7236H236.787Z" fill="#FEFEFE"/>
<path d="M101.844 90.7893H98.5688L95.653 86.6234V90.7893H93.1874V86.6234L90.2625 90.7893H86.9961L91.1423 85.7313L87.3068 81.2517H90.5213L93.1874 84.9274V81.2517H95.653V84.9274L98.3196 81.2517H101.53L97.6986 85.7313L101.844 90.7893ZM114.193 90.7893H111.691V85.6581L105.536 91.3375V81.2517H108.038V86.1332L114.193 80.704V90.7893ZM127.604 90.7893H125.102V83.3529H121.979V87.4976C121.979 88.8588 121.763 89.8057 121.328 90.3414C120.965 90.7861 120.378 91.0083 119.565 91.0083C118.929 91.0083 118.403 90.9048 117.979 90.6978V88.4872C118.308 88.6698 118.61 88.7613 118.889 88.7613C119.343 88.7613 119.568 88.3378 119.568 87.4944V81.2517H127.604V90.7893ZM142.613 86.0145C142.613 87.4428 142.129 88.6514 141.161 89.6383C140.157 90.6491 138.893 91.1545 137.371 91.1545C135.85 91.1545 134.586 90.6491 133.582 89.6383C132.614 88.6514 132.13 87.4428 132.13 86.0145C132.13 84.5894 132.614 83.3836 133.582 82.4028C134.586 81.392 135.85 80.8866 137.371 80.8866C138.893 80.8866 140.157 81.392 141.161 82.4028C142.129 83.3836 142.613 84.5894 142.613 86.0145ZM139.91 86.0145C139.91 85.1072 139.667 84.3976 139.18 83.8922C138.72 83.4232 138.12 83.1886 137.378 83.1886C136.632 83.1886 136.032 83.4232 135.573 83.8922C135.08 84.4036 134.833 85.1132 134.833 86.0145C134.833 86.9251 135.08 87.6346 135.573 88.14C136.032 88.6151 136.632 88.8524 137.378 88.8524C138.12 88.8524 138.72 88.6151 139.18 88.14C139.667 87.6346 139.91 86.9251 139.91 86.0145ZM154.155 77.7986C154.155 78.6604 153.842 79.3212 153.218 79.787C152.725 80.1558 152.159 80.3384 151.522 80.3384C150.892 80.3384 150.335 80.1558 149.848 79.787C149.231 79.3212 148.92 78.6604 148.92 77.7986H150.819C150.819 78.4199 151.054 78.7307 151.522 78.7307C152 78.7307 152.238 78.4199 152.238 77.7986H154.155ZM155.802 90.7893H153.3V85.6581L147.145 91.3375V81.2517H149.647V86.1332L155.802 80.7068V90.7893ZM172.132 90.7893H168.86L165.832 86.6234V90.7893H163.33V81.2517H165.832V84.9274L168.702 81.2517H171.907L167.877 85.7313L172.132 90.7893ZM185.665 86.0145C185.665 87.4428 185.181 88.6514 184.213 89.6383C183.209 90.6491 181.946 91.1545 180.424 91.1545C178.902 91.1545 177.639 90.6491 176.634 89.6383C175.666 88.6514 175.182 87.4428 175.182 86.0145C175.182 84.5894 175.666 83.3836 176.634 82.4028C177.639 81.392 178.902 80.8866 180.424 80.8866C181.946 80.8866 183.209 81.392 184.213 82.4028C185.181 83.3836 185.665 84.5894 185.665 86.0145ZM182.962 86.0145C182.962 85.1072 182.719 84.3976 182.232 83.8922C181.772 83.4232 181.173 83.1886 180.43 83.1886C179.684 83.1886 179.084 83.4232 178.625 83.8922C178.132 84.4036 177.885 85.1132 177.885 86.0145C177.885 86.9251 178.132 87.6346 178.625 88.14C179.084 88.6151 179.684 88.8524 180.43 88.8524C181.173 88.8524 181.772 88.6151 182.232 88.14C182.719 87.6346 182.962 86.9251 182.962 86.0145ZM200.955 90.7893H198.419L197.488 86.7117L194.891 91.2276L192.298 86.7149L191.366 90.7893H188.828L191.281 80.6948L194.903 86.9586L198.513 80.71L200.955 90.7893ZM213.48 90.7893H210.978V83.4443H207.325V90.7893H204.823V81.2517H213.48V90.7893ZM226.888 90.7893H224.386V83.3529H221.263V87.4976C221.263 88.8588 221.047 89.8057 220.611 90.3414C220.249 90.7861 219.662 91.0083 218.849 91.0083C218.213 91.0083 217.687 90.9048 217.263 90.6978V88.4872C217.592 88.6698 217.893 88.7613 218.173 88.7613C218.627 88.7613 218.852 88.3378 218.852 87.4944V81.2517H226.888V90.7893ZM241.659 86.13H234.044C234.044 86.995 234.251 87.677 234.668 88.1828C235.115 88.7277 235.748 88.9986 236.567 88.9986C237.745 88.9986 238.479 88.5967 238.771 87.7928H241.367C240.932 88.9651 240.332 89.8181 239.565 90.3506C238.798 90.8868 237.8 91.1545 236.567 91.1545C234.981 91.1545 233.712 90.6431 232.759 89.6199C231.861 88.6638 231.414 87.4608 231.414 86.0145C231.414 84.6014 231.907 83.3928 232.893 82.3908C233.883 81.3892 235.106 80.8866 236.567 80.8866C238.089 80.8866 239.313 81.34 240.232 82.251C241.185 83.1946 241.659 84.4887 241.659 86.13ZM238.941 84.5223C238.448 83.4503 237.657 82.9146 236.567 82.9146C235.505 82.9146 234.738 83.4503 234.269 84.5223H238.941ZM254.992 90.7893H251.719L248.691 86.6234V90.7893H246.189V81.2517H248.691V84.9274L251.561 81.2517H254.766L250.736 85.7313L254.992 90.7893ZM266.202 90.512C265.237 90.9172 264.324 91.1181 263.463 91.1181C261.907 91.1181 260.623 90.6615 259.612 89.7449C258.565 88.7977 258.042 87.5643 258.042 86.0417C258.042 84.5742 258.559 83.3469 259.594 82.3632C260.629 81.38 261.916 80.8866 263.463 80.8866C264.342 80.8866 265.255 81.0875 266.202 81.4926V84.1172C265.21 83.5358 264.357 83.2434 263.651 83.2434C261.724 83.2434 260.762 84.1751 260.762 86.0417C260.762 87.8536 261.724 88.7613 263.651 88.7613C264.555 88.7613 265.405 88.4505 266.202 87.8264V90.512Z" fill="#034A6E"/>
<path fill-rule="evenodd" clip-rule="evenodd" d="M155.225 12.8457C155.666 12.7155 156.11 12.5932 156.552 12.4701C158.476 11.934 160.402 11.4054 162.325 10.8708C165.299 10.0442 168.272 9.20838 171.256 8.4213C173.906 7.72212 176.516 7.12323 179.211 6.61702C182.773 5.94741 186.37 5.36449 189.954 4.82233C193.191 4.33291 196.425 3.9102 199.677 3.53225C203.819 3.05121 207.968 2.61652 212.12 2.22658C216.838 1.7831 221.56 1.40594 226.288 1.09551C231.209 0.77229 236.141 0.506202 241.068 0.30364C244.477 0.163405 247.885 0.064721 251.297 0.0311605C253.817 0.0063896 256.336 0.0135811 258.856 0.0675178C260.763 0.10827 262.668 0.174192 264.574 0.247706C265.527 0.284463 266.848 0.21854 266.878 1.82266C266.911 3.51587 265.333 3.43236 264.327 3.50308C261.417 3.70804 258.515 3.95415 255.612 4.23542C250.536 4.72764 245.449 5.28179 240.389 5.91545C236.828 6.36092 233.303 6.87552 229.771 7.51077C226.424 8.11326 223.106 8.80046 219.798 9.59073C215.879 10.5272 211.955 11.5736 208.1 12.7426C205.005 13.6811 201.948 14.7231 198.937 15.9037C196.595 16.8222 194.304 17.8203 192.048 18.9341C189.904 19.9925 187.788 21.1376 185.738 22.3693C183.933 23.4536 182.181 24.6151 180.491 25.8716C178.89 27.0626 177.372 28.3255 175.922 29.6967C174.491 31.0487 173.058 32.5194 171.786 34.0224C171.184 34.7332 170.64 35.4463 170.15 36.2366C169.483 37.3102 168.579 37.6006 167.464 36.9462C166.709 36.5035 165.939 36.0968 165.158 35.7012C163.149 34.6844 161.096 33.7296 159.049 32.7959C155.996 31.4039 152.918 30.0603 149.822 28.7702C146.191 27.2572 142.534 25.8456 138.833 24.512C134.124 22.8148 129.366 21.2023 124.596 19.6845C120.354 18.3345 116.106 17.1075 111.8 15.9816C107.171 14.7714 102.511 13.6352 97.8476 12.5648C94.3884 11.7714 90.9335 11.0474 87.4455 10.3918C83.6044 9.66983 79.751 8.99862 75.8923 8.37815C71.9626 7.74649 68.0237 7.17477 64.0772 6.65897C60.1336 6.14318 56.1827 5.68332 52.2266 5.2754C48.5776 4.89904 44.9231 4.56144 41.2685 4.2502C39.4251 4.09319 37.582 3.94576 35.7366 3.81591C34.9207 3.75838 34.1048 3.70324 33.2885 3.65091C32.6348 3.60975 31.9806 3.5694 31.3264 3.52945C30.8967 3.50348 30.467 3.47831 30.0373 3.45354C29.7889 3.43916 29.5353 3.42877 29.2877 3.40639C27.2821 3.22541 27.3496 0.405521 29.3352 0.282465C29.38 0.279269 29.4251 0.276472 29.4698 0.273676C29.5241 0.270479 29.578 0.267283 29.6324 0.264087C29.6859 0.260891 29.7394 0.257694 29.7933 0.254498C29.8444 0.251302 29.8955 0.248505 29.9471 0.245708C30.009 0.242113 30.0713 0.238517 30.1332 0.234921C30.1975 0.231325 30.2613 0.227729 30.3252 0.224533C30.4051 0.220138 30.4846 0.215744 30.5645 0.211748C30.6563 0.206554 30.7482 0.20216 30.84 0.197765C30.9754 0.190973 31.1108 0.184181 31.2458 0.177788C31.3632 0.172195 31.4802 0.166601 31.5972 0.161407C31.725 0.155814 31.8528 0.150221 31.9806 0.144627C32.1108 0.139433 32.2406 0.13384 32.3708 0.129045C32.5685 0.121454 32.7661 0.113863 32.9638 0.106672C33.1555 0.0998797 33.3468 0.0930877 33.5385 0.0866952C34.0429 0.0703145 34.5497 0.0675178 35.0541 0.0603262C36.8416 0.0347563 38.6296 0.011983 40.4171 0.00279382C42.1651 -0.00639538 43.9095 0.00798772 45.6575 0.0399502C47.8951 0.0811018 50.1336 0.137036 52.3704 0.206155C54.5705 0.274475 56.7693 0.360773 58.9682 0.461854C61.6403 0.58451 64.3109 0.729939 66.981 0.892149C70.7326 1.12028 74.4838 1.37438 78.2322 1.65365C82.1427 1.94531 86.0505 2.26853 89.9558 2.62331C93.6084 2.95532 97.2594 3.31131 100.907 3.69246C103.832 3.9981 106.751 4.32771 109.671 4.68769C112.819 5.07603 115.967 5.48435 119.11 5.91545C121.197 6.20191 123.283 6.50196 125.363 6.83836C126.841 7.07768 128.314 7.33538 129.786 7.61345C131.215 7.88393 132.641 8.1696 134.066 8.45886C135.673 8.78527 137.28 9.11808 138.886 9.45209C141.505 9.99705 144.125 10.5444 146.745 11.0894C148.637 11.4833 150.529 11.8748 152.421 12.266C153.333 12.4542 154.245 12.6427 155.156 12.8313C155.179 12.8357 155.202 12.8409 155.225 12.8457Z" fill="#FEFEFE"/>
<path fill-rule="evenodd" clip-rule="evenodd" d="M29.428 1.85384C29.3253 1.84465 29.3837 1.84105 29.4316 1.83786C29.4795 1.83506 29.5162 1.83266 29.5634 1.82987C29.6101 1.82707 29.6668 1.82307 29.7227 1.82028C29.779 1.81668 29.8345 1.81349 29.8849 1.81069C29.9352 1.80749 29.9799 1.8047 30.0358 1.8019C30.0917 1.7983 30.158 1.79471 30.2199 1.79151C30.281 1.78792 30.3377 1.78472 30.4088 1.78072C30.4799 1.77713 30.5654 1.77233 30.6456 1.76834C30.7255 1.76394 30.8006 1.76035 30.9172 1.75435C31.0338 1.74876 31.192 1.74077 31.3206 1.73478C31.4492 1.72839 31.5474 1.72399 31.6668 1.7188C31.7862 1.7132 31.926 1.70721 32.047 1.70202C32.168 1.69682 32.2698 1.69283 32.4308 1.68643C32.5909 1.68044 32.8102 1.67205 33.0198 1.66446C33.2291 1.65687 33.4296 1.65008 33.5897 1.64488C33.7495 1.63969 33.8697 1.63569 35.0761 1.61891C36.2822 1.60173 38.5749 1.57097 40.4256 1.56138C42.2758 1.55179 43.684 1.56298 45.6293 1.59854C47.5745 1.6341 50.057 1.69403 52.3222 1.76434C54.5869 1.83466 56.6349 1.91497 58.8968 2.01884C61.1588 2.12272 63.6349 2.25057 66.8864 2.44834C70.138 2.64571 74.1656 2.91379 78.1165 3.20825C82.067 3.5027 85.9416 3.82392 89.8154 4.17591C93.6888 4.5275 97.5614 4.91025 100.745 5.24266C103.929 5.57547 106.423 5.85753 109.48 6.23469C112.537 6.61185 116.156 7.08369 118.898 7.45965C121.64 7.83601 123.505 8.11688 125.114 8.37737C126.724 8.63787 128.079 8.87719 129.497 9.14527C130.914 9.41336 132.394 9.71021 133.757 9.98668C135.119 10.2632 136.364 10.5197 138.568 10.9783C140.772 11.437 143.936 12.0974 146.428 12.6156C148.92 13.1342 150.739 13.5101 152.106 13.7926C153.472 14.0747 154.385 14.2637 154.841 14.3575C155.297 14.4518 155.297 14.4518 155.437 14.4095C155.576 14.3671 155.856 14.282 156.971 13.9716C158.085 13.6608 160.035 13.125 162.742 12.3727C165.45 11.62 168.913 10.6511 171.653 9.92835C174.392 9.206 176.408 8.72976 179.498 8.14884C182.589 7.56832 186.754 6.88273 190.187 6.36374C193.619 5.84475 196.318 5.49196 199.856 5.08085C203.395 4.66973 207.773 4.20068 212.266 3.77838C216.759 3.35647 221.367 2.98051 226.39 2.6509C231.413 2.32089 236.85 2.03682 241.132 1.86103C245.414 1.68484 248.542 1.61692 251.312 1.58975C254.083 1.56258 256.495 1.57576 258.823 1.62611C261.15 1.67565 263.392 1.76195 264.514 1.8051C265.635 1.84824 265.635 1.84824 264.218 1.94813C262.8 2.04801 259.965 2.24738 255.462 2.68406C250.958 3.12035 244.786 3.79396 240.196 4.36848C235.605 4.94301 232.596 5.41885 229.496 5.97659C226.396 6.53434 223.204 7.17439 219.436 8.07453C215.668 8.97507 211.322 10.1365 207.648 11.2512C203.973 12.3651 200.97 13.4326 198.369 14.4526C195.768 15.4726 193.569 16.4451 191.359 17.5362C189.148 18.6277 186.924 19.8379 184.936 21.0329C182.948 22.2279 181.193 23.4073 179.562 24.6207C177.93 25.8337 176.421 27.0798 174.851 28.5641C173.281 30.0479 171.651 31.7699 170.597 33.0148C169.543 34.2606 169.065 35.0297 168.826 35.414C168.587 35.7984 168.587 35.7984 168.252 35.6018C167.916 35.4048 167.246 35.0117 165.861 34.3105C164.476 33.6097 162.378 32.6009 159.695 31.3775C157.011 30.1534 153.741 28.7143 150.421 27.3311C147.1 25.9475 143.729 24.6195 139.362 23.0453C134.994 21.4712 129.631 19.6509 125.069 18.199C120.506 16.7467 116.745 15.6632 112.194 14.4734C107.642 13.2836 102.302 11.9883 98.196 11.0458C94.0897 10.1033 91.2183 9.51484 87.7331 8.86001C84.2479 8.20478 80.1492 7.48362 76.1396 6.83918C72.1297 6.19474 68.2087 5.627 64.2794 5.11321C60.3497 4.59941 56.4112 4.13995 52.3864 3.72484C48.3613 3.30973 44.2495 2.93976 41.4004 2.69685C38.5514 2.45473 36.9651 2.33967 35.8461 2.26096C34.7263 2.18225 34.0738 2.1391 33.3872 2.09555C32.7007 2.05201 31.9807 2.00766 31.4204 1.9737C30.8597 1.93974 30.4587 1.91656 30.1265 1.89739C29.7942 1.87821 29.5306 1.86343 29.428 1.85384Z" fill="#034A6E"/>
<path fill-rule="evenodd" clip-rule="evenodd" d="M32.9613 63.8362V91.2895C32.9613 92.1481 32.2612 92.8481 31.403 92.8481H18.8255C17.9677 92.8481 17.2676 92.1481 17.2676 91.2895V26.8792C17.2676 26.0206 17.9677 25.3206 18.8255 25.3206H31.403C32.2612 25.3206 32.9613 26.0206 32.9613 26.8792V49.5985L53.2484 25.8664C53.5551 25.5076 53.9609 25.3206 54.4325 25.3206H69.121C69.75 25.3206 70.288 25.6694 70.5439 26.2439C70.8003 26.8189 70.7005 27.4525 70.2808 27.9204L44.5483 56.5979L71.9137 90.3066C72.3015 90.7845 72.3754 91.4034 72.111 91.9595C71.8463 92.5153 71.3195 92.8481 70.7041 92.8481H54.9896C54.4768 92.8481 54.0355 92.6243 53.7324 92.2104L32.9613 63.8362Z" fill="#FEFEFE"/>
<path d="M70.7048 91.2895H54.9903L31.4037 59.0694V91.2895H18.8262V26.8792H31.4037V53.8196L54.4332 26.8792H69.1217L42.5007 56.5472L70.7048 91.2895Z" fill="#034A6E"/>
</svg>
