<svg width="101" height="70" viewBox="0 0 101 70" fill="none" xmlns="http://www.w3.org/2000/svg">
<path fill-rule="evenodd" clip-rule="evenodd" d="M0 23.1582H39.4502L44.5848 30.5662L50.4037 23.1582H91.2258V47.5333H52.5262L43.5577 36.0097L34.8633 47.5333H0V23.1582Z" fill="black"/>
<path d="M17.4695 37.581H10.9148V31.8521H9.52051V38.8383H17.4695V37.581ZM32.2801 31.8521H30.8853V37.581H23.9124V31.8521H22.5181V37.581C22.5181 37.581 22.5181 38.8383 23.7733 38.8383H31.0249C32.3218 38.8383 32.2801 37.581 32.2801 37.581V31.8521ZM63.9647 31.8521H56.7131C55.4579 31.8521 55.4579 33.1093 55.4579 33.1093V38.8383H56.8522V36.6026H63.8251V38.8383H65.2199V33.1093C65.2199 33.1093 65.2199 31.8521 63.9647 31.8521ZM56.8522 33.1093H63.8251V35.345H56.8522V33.1093ZM81.7035 38.8383L80.03 36.6026C81.4248 36.6026 81.4248 35.345 81.4248 35.345V33.1093C81.4248 33.1093 81.4248 31.8521 80.03 31.8521H71.6628V38.8383H73.0571V36.6026H78.4961L80.1696 38.8383H81.7035ZM80.03 35.345H73.0571V33.1093H80.03V35.345Z" fill="#FEFEFE"/>
<path d="M100.071 45.7725C100.071 46.0712 100.029 46.3446 99.9468 46.5934C99.8637 46.8422 99.6963 47.0433 99.4437 47.1967C99.1916 47.35 98.8087 47.4269 98.2956 47.4269H94.137C93.69 47.4269 93.3485 47.3441 93.1128 47.1781C92.8767 47.0121 92.7156 46.7865 92.6283 46.5C92.5415 46.214 92.498 45.8845 92.498 45.5115C92.498 45.138 92.5436 44.8085 92.6347 44.5225C92.7257 44.2365 92.8872 44.0104 93.1187 43.8444C93.3506 43.6788 93.69 43.596 94.137 43.596H95.1051V44.5288H94.1121C93.8224 44.5288 93.6053 44.5702 93.4602 44.653C93.3156 44.7358 93.2203 44.8499 93.1748 44.9952C93.1292 45.1401 93.1065 45.3083 93.1065 45.4988C93.1065 45.6897 93.1292 45.8575 93.1748 46.0028C93.2203 46.1477 93.3156 46.2618 93.4602 46.3446C93.6053 46.4278 93.8224 46.4692 94.1121 46.4692H98.482C98.7797 46.4692 99.001 46.4278 99.1461 46.3446C99.2907 46.2618 99.386 46.1477 99.4315 46.0028C99.477 45.8575 99.4998 45.6897 99.4998 45.4988C99.4998 45.217 99.413 44.9846 99.2392 44.8021C99.0651 44.6201 98.813 44.5288 98.482 44.5288H96.9797V45.3868H96.4088V43.596H99.9341V44.3172L99.2637 44.367C99.3134 44.3919 99.3611 44.419 99.4066 44.4477C99.4522 44.4768 99.4914 44.5039 99.5247 44.5288C99.682 44.6365 99.8122 44.7899 99.9155 44.9889C100.019 45.1879 100.071 45.4489 100.071 45.7725ZM99.9341 42.3269H92.5976V39.9142C92.5976 39.4744 92.6988 39.1284 92.9016 38.8754C93.1044 38.6227 93.4126 38.496 93.8266 38.496H94.9933C95.4154 38.496 95.7464 38.6164 95.9867 38.8568C96.2266 39.0972 96.3548 39.433 96.3712 39.8644C96.3881 39.5906 96.4792 39.3895 96.6445 39.2611C96.8102 39.1326 97.0665 39.0186 97.4144 38.9189L99.9341 38.1851V39.2298L97.4764 39.8644C97.3271 39.9058 97.1867 39.9556 97.0543 40.0135C96.9219 40.0718 96.8161 40.1419 96.7376 40.2251C96.6588 40.3079 96.6196 40.4199 96.6196 40.561V41.332H99.9341V42.3269ZM95.9492 41.332V40.362C95.9492 40.0549 95.875 39.8251 95.7257 39.6717C95.5769 39.5179 95.3205 39.4415 94.9562 39.4415H93.9877C93.69 39.4415 93.475 39.5141 93.3422 39.659C93.2098 39.8044 93.1436 39.9805 93.1436 40.1875V41.332H95.9492ZM100.083 35.3617C100.083 35.7348 100.04 36.0622 99.9526 36.3444C99.8658 36.6262 99.6857 36.8501 99.4129 37.0161C99.1397 37.1817 98.7299 37.2645 98.1839 37.2645H94.137C93.6816 37.2645 93.3363 37.1817 93.1002 37.0161C92.8645 36.8501 92.7051 36.624 92.6224 36.338C92.5394 36.052 92.498 35.7225 92.498 35.349C92.498 34.976 92.5415 34.6465 92.6283 34.3605C92.7156 34.074 92.8746 33.8484 93.1065 33.6824C93.3384 33.5168 93.6816 33.4336 94.137 33.4336H98.1839C98.7383 33.4336 99.1503 33.5168 99.4189 33.6824C99.6879 33.8484 99.8658 34.0761 99.9526 34.3664C100.04 34.6566 100.083 34.9883 100.083 35.3617ZM99.4998 35.3617C99.4998 35.1708 99.4749 35.003 99.4252 34.8577C99.3754 34.7128 99.2784 34.5987 99.1334 34.5159C98.9888 34.4327 98.7716 34.3913 98.482 34.3913H94.1121C93.8309 34.3913 93.6175 34.4327 93.4729 34.5159C93.3278 34.5987 93.2304 34.7128 93.1811 34.8577C93.1314 35.003 93.1065 35.1708 93.1065 35.3617C93.1065 35.5522 93.1314 35.7183 93.1811 35.859C93.2304 36.0001 93.3278 36.112 93.4729 36.1948C93.6175 36.278 93.8309 36.3194 94.1121 36.3194H98.482C98.7716 36.3194 98.9888 36.278 99.1334 36.1948C99.2784 36.112 99.3754 36.0001 99.4252 35.859C99.4749 35.7183 99.4998 35.5522 99.4998 35.3617ZM100.083 30.2744C100.083 30.5397 100.063 30.7885 100.021 31.0205C99.9796 31.2528 99.8991 31.4539 99.7789 31.6237C99.6592 31.794 99.4813 31.9288 99.2451 32.028C99.0094 32.1277 98.6928 32.1776 98.2956 32.1776H92.5976V31.2072H98.5191C98.7839 31.2072 98.9846 31.1637 99.1212 31.0766C99.2578 30.9896 99.3506 30.8755 99.4003 30.7344C99.4501 30.5938 99.4749 30.44 99.4749 30.2744C99.4749 30.1083 99.4501 29.9529 99.4003 29.808C99.3506 29.6626 99.2578 29.5469 99.1212 29.4594C98.9846 29.3724 98.7839 29.3289 98.5191 29.3289H92.5976V28.3838H98.2956C98.6844 28.3838 98.9989 28.4316 99.2392 28.5266C99.4791 28.6221 99.6592 28.7548 99.7789 28.9246C99.8991 29.0949 99.9796 29.2959 100.021 29.5279C100.063 29.7602 100.083 30.0091 100.083 30.2744ZM99.9341 27.0028H92.5976V24.6273C92.5976 24.1879 92.6988 23.8415 92.9016 23.5888C93.1044 23.3358 93.4126 23.2095 93.8266 23.2095H95.1548C95.4445 23.2095 95.7177 23.2488 95.9741 23.3273C96.2308 23.4063 96.4374 23.5576 96.5947 23.7815C96.752 24.0054 96.8308 24.3286 96.8308 24.7515V25.9956H99.9341V27.0028ZM96.2721 25.9956V25.0628C96.2721 24.7641 96.1726 24.5402 95.9741 24.3911C95.7755 24.2416 95.4609 24.1672 95.0308 24.1672H94.2112C93.8389 24.1672 93.5678 24.2356 93.3983 24.3721C93.2288 24.509 93.1436 24.6813 93.1436 24.8884V25.9956H96.2721Z" fill="#6B8C9E"/>
<mask id="mask0_100_270" style="mask-type:alpha" maskUnits="userSpaceOnUse" x="18" y="0" width="50" height="70">
<path fill-rule="evenodd" clip-rule="evenodd" d="M43.663 38.3274L18.5967 69.9088L40.7997 34.0634L29.2715 16.8978H36.4974L44.6707 29.0682L67.7418 0L47.3063 32.9925L61.231 53.7266H54.0051L43.663 38.3274Z" fill="#62D8D8"/>
</mask>
<g mask="url(#mask0_100_270)">
<path d="M11.3789 -3.10938H72.3061V75.1079H11.3789V-3.10938Z" fill="#62D6D6"/>
<path fill-rule="evenodd" clip-rule="evenodd" d="M36.3876 81.4143L10.2158 64.4709L26.4949 39.2256L52.6663 56.169L36.3876 81.4143Z" fill="url(#paint0_linear_100_270)"/>
<path fill-rule="evenodd" clip-rule="evenodd" d="M57.9479 -9.95675L82.5825 9.15294L64.2136 32.921L39.5794 13.8113L57.9479 -9.95675Z" fill="url(#paint1_linear_100_270)"/>
<path fill-rule="evenodd" clip-rule="evenodd" d="M79.543 48.1205L60.8535 73.0754L36.7776 55.1118L55.4671 30.1574L79.543 48.1205Z" fill="url(#paint2_linear_100_270)"/>
<path fill-rule="evenodd" clip-rule="evenodd" d="M6.99945 15.9877L31.2761 -3.57463L50.1662 19.7814L25.8896 39.3433L6.99945 15.9877Z" fill="url(#paint3_linear_100_270)"/>
</g>
<defs>
<linearGradient id="paint0_linear_100_270" x1="23.3019" y1="72.9426" x2="39.6262" y2="47.7268" gradientUnits="userSpaceOnUse">
<stop stop-color="#2B2A29"/>
<stop offset="0.164706" stop-color="#252325"/>
<stop offset="0.258824" stop-color="#1F1B20"/>
<stop offset="1" stop-color="#62D8D8"/>
</linearGradient>
<linearGradient id="paint1_linear_100_270" x1="70.265" y1="-0.401923" x2="51.8536" y2="23.3329" gradientUnits="userSpaceOnUse">
<stop stop-color="#2B2A29"/>
<stop offset="0.164706" stop-color="#252325"/>
<stop offset="0.258824" stop-color="#1F1B20"/>
<stop offset="1" stop-color="#62D8D8"/>
</linearGradient>
<linearGradient id="paint2_linear_100_270" x1="70.1983" y1="60.5977" x2="46.1549" y2="42.5911" gradientUnits="userSpaceOnUse">
<stop stop-color="#2B2A29"/>
<stop offset="0.164706" stop-color="#252325"/>
<stop offset="0.258824" stop-color="#1F1B20"/>
<stop offset="1" stop-color="#62D8D8"/>
</linearGradient>
<linearGradient id="paint3_linear_100_270" x1="19.1377" y1="6.20675" x2="37.9856" y2="29.5964" gradientUnits="userSpaceOnUse">
<stop stop-color="#2B2A29"/>
<stop offset="0.164706" stop-color="#252325"/>
<stop offset="0.258824" stop-color="#1F1B20"/>
<stop offset="1" stop-color="#62D8D8"/>
</linearGradient>
</defs>
</svg>
