<svg width="258" height="64" viewBox="0 0 258 64" fill="none" xmlns="http://www.w3.org/2000/svg">
<path d="M20.1 17L14.2 43.1C12.9 49.4 10.75 52.55 3.1 52.05V47.15C5.9 47.35 7.5 46.85 7.95 44.3L8 44L0.4 17H5.85L8.85 28.95L10.55 37.15L11.85 29L14.35 17H20.1ZM30.5102 17C36.0102 17 38.7102 20.05 38.7102 25.65V30.2C38.7102 35.8 36.0102 38.85 30.5102 38.85H27.9102V52H22.4102V17H30.5102ZM30.5102 22H27.9102V33.85H30.5102C32.2602 33.85 33.2102 33.05 33.2102 30.55V25.3C33.2102 22.8 32.2602 22 30.5102 22ZM53.4578 17L59.0578 52H53.5078L52.5578 45.65H45.8078L44.8578 52H39.8078L45.4078 17H53.4578ZM49.1578 23.2L46.5078 40.9H51.8078L49.1578 23.2ZM60.0691 52.05V47.05C62.5691 47.05 63.3691 46.7 63.4691 43.45L64.3691 17H79.9191V52H74.3191V22H69.5191L68.9191 43.15C68.7191 49.55 66.4191 52.05 60.9191 52.05H60.0691ZM96.3289 17L101.929 52H96.3789L95.4289 45.65H88.6789L87.7289 52H82.6789L88.2789 17H96.3289ZM92.0289 23.2L89.3789 40.9H94.6789L92.0289 23.2ZM112.79 17C118.49 17 120.94 19.65 120.94 25.05V26.3C120.94 29.9 119.84 32.2 117.39 33.35C120.34 34.5 121.49 37.15 121.49 40.85V43.7C121.49 49.1 118.64 52 113.14 52H104.49V17H112.79ZM112.44 36.25H109.99V47H113.14C114.99 47 115.99 46.15 115.99 43.55V40.5C115.99 37.25 114.94 36.25 112.44 36.25ZM112.64 22H109.99V31.25H112.14C114.19 31.25 115.44 30.35 115.44 27.55V25.6C115.44 23.1 114.59 22 112.64 22ZM123.203 22V17H140.203V22H134.453V52H128.953V22H123.203ZM147.675 25.05V43.95C147.675 46.45 148.775 47.4 150.525 47.4C152.275 47.4 153.375 46.45 153.375 43.95V25.05C153.375 22.55 152.275 21.6 150.525 21.6C148.775 21.6 147.675 22.55 147.675 25.05ZM142.175 43.6V25.4C142.175 19.8 145.125 16.6 150.525 16.6C155.925 16.6 158.875 19.8 158.875 25.4V43.6C158.875 49.2 155.925 52.4 150.525 52.4C145.125 52.4 142.175 49.2 142.175 43.6ZM173.199 38.95H178.399V43.6C178.399 49.2 175.599 52.4 170.199 52.4C164.799 52.4 161.999 49.2 161.999 43.6V25.4C161.999 19.8 164.799 16.6 170.199 16.6C175.599 16.6 178.399 19.8 178.399 25.4V28.8H173.199V25.05C173.199 22.55 172.099 21.6 170.349 21.6C168.599 21.6 167.499 22.55 167.499 25.05V43.95C167.499 46.45 168.599 47.35 170.349 47.35C172.099 47.35 173.199 46.45 173.199 43.95V38.95ZM180.136 22V17H197.136V22H191.386V52H185.886V22H180.136ZM207.659 17C213.159 17 215.859 20.05 215.859 25.65V30.2C215.859 35.8 213.159 38.85 207.659 38.85H205.059V52H199.559V17H207.659ZM207.659 22H205.059V33.85H207.659C209.409 33.85 210.359 33.05 210.359 30.55V25.3C210.359 22.8 209.409 22 207.659 22ZM223.456 25.05V43.95C223.456 46.45 224.556 47.4 226.306 47.4C228.056 47.4 229.156 46.45 229.156 43.95V25.05C229.156 22.55 228.056 21.6 226.306 21.6C224.556 21.6 223.456 22.55 223.456 25.05ZM217.956 43.6V25.4C217.956 19.8 220.906 16.6 226.306 16.6C231.706 16.6 234.656 19.8 234.656 25.4V43.6C234.656 49.2 231.706 52.4 226.306 52.4C220.906 52.4 217.956 49.2 217.956 43.6ZM243.88 52H238.23V17H243.13V39.15L245.13 31.45L249.63 17H255.68V52H250.73V27.35L248.48 35.95L243.88 52ZM249.53 9.2C249.38 11.05 248.53 11.5 247.03 11.5C245.58 11.5 244.83 11.05 244.68 9.2H241.28C241.38 12.6 243.18 14.75 247.03 14.75C250.93 14.75 252.88 12.6 252.88 9.2H249.53Z" fill="url(#paint0_linear_108_647)"/>
<path d="M4.848 11.156C3.576 11.156 2.524 10.736 1.692 9.896C0.868 9.056 0.456 8.024 0.456 6.8C0.456 5.576 0.868 4.544 1.692 3.704C2.524 2.864 3.576 2.444 4.848 2.444C5.616 2.444 6.32 2.628 6.96 2.996C7.608 3.364 8.112 3.86 8.472 4.484L7.5 5.048C7.26 4.584 6.9 4.216 6.42 3.944C5.948 3.664 5.424 3.524 4.848 3.524C3.88 3.524 3.088 3.836 2.472 4.46C1.864 5.084 1.56 5.864 1.56 6.8C1.56 7.728 1.864 8.504 2.472 9.128C3.088 9.752 3.88 10.064 4.848 10.064C5.424 10.064 5.948 9.928 6.42 9.656C6.9 9.376 7.26 9.008 7.5 8.552L8.472 9.104C8.12 9.728 7.62 10.228 6.972 10.604C6.324 10.972 5.616 11.156 4.848 11.156ZM15.8671 2.6V11H14.7511V3.656H10.8871V11H9.77109V2.6H15.8671ZM18.7855 9.944H22.6855V11H17.6695V2.6H22.6255V3.656H18.7855V6.236H22.3255V7.28H18.7855V9.944ZM30.1288 9.944H31.0288V12.608H29.9128V11H24.0328V2.6H25.1488V9.944H29.0128V2.6H30.1288V9.944ZM37.538 11V4.736L33.218 11H32.318V2.6H33.434V8.876L37.754 2.6H38.654V11H37.538ZM45.9828 11L45.2988 9.116H41.5188L40.8348 11H39.6468L42.7788 2.6H44.0388L47.1708 11H45.9828ZM41.9028 8.072H44.9148L43.4028 3.932L41.9028 8.072ZM47.4649 11V9.992C48.0169 10.072 48.4289 9.92 48.7009 9.536C48.9809 9.144 49.1209 8.42 49.1209 7.364V2.6H54.6649V11H53.5489V3.656H50.2369V7.364C50.2369 8.116 50.1649 8.748 50.0209 9.26C49.8849 9.764 49.6849 10.144 49.4209 10.4C49.1649 10.656 48.8769 10.832 48.5569 10.928C48.2449 11.016 47.8809 11.04 47.4649 11ZM61.6903 11V4.736L57.3703 11H56.4703V2.6H57.5863V8.876L61.9063 2.6H62.8063V11H61.6903ZM68.648 6.656C69.08 6.84 69.416 7.108 69.656 7.46C69.896 7.812 70.016 8.228 70.016 8.708C70.016 9.428 69.744 10.016 69.2 10.472C68.664 10.928 67.952 11.156 67.064 11.156C66.256 11.156 65.604 10.976 65.108 10.616C64.62 10.256 64.276 9.792 64.076 9.224L65.024 8.684C65.272 9.628 65.952 10.1 67.064 10.1C67.648 10.1 68.1 9.972 68.42 9.716C68.74 9.452 68.9 9.104 68.9 8.672C68.9 8.24 68.748 7.892 68.444 7.628C68.148 7.364 67.732 7.232 67.196 7.232H66.212V6.212H66.92C67.432 6.212 67.84 6.088 68.144 5.84C68.448 5.584 68.6 5.252 68.6 4.844C68.6 4.444 68.456 4.12 68.168 3.872C67.888 3.616 67.496 3.488 66.992 3.488C66.064 3.488 65.444 3.9 65.132 4.724L64.196 4.184C64.7 3.024 65.632 2.444 66.992 2.444C67.8 2.444 68.452 2.668 68.948 3.116C69.452 3.564 69.704 4.132 69.704 4.82C69.704 5.62 69.352 6.232 68.648 6.656ZM76.5614 11V4.736L72.2414 11H71.3414V2.6H72.4574V8.876L76.7774 2.6H77.6774V11H76.5614ZM82.5222 2.6C83.2982 2.6 83.9422 2.86 84.4542 3.38C84.9742 3.892 85.2342 4.532 85.2342 5.3C85.2342 6.06 84.9742 6.7 84.4542 7.22C83.9422 7.74 83.2982 8 82.5222 8H80.5902V11H79.4742V2.6H82.5222ZM82.5222 6.956C82.9862 6.956 83.3702 6.8 83.6742 6.488C83.9782 6.168 84.1302 5.772 84.1302 5.3C84.1302 4.82 83.9782 4.424 83.6742 4.112C83.3702 3.8 82.9862 3.644 82.5222 3.644H80.5902V6.956H82.5222ZM93.4778 9.884C92.6378 10.732 91.6098 11.156 90.3938 11.156C89.1778 11.156 88.1498 10.732 87.3098 9.884C86.4698 9.036 86.0498 8.008 86.0498 6.8C86.0498 5.584 86.4698 4.556 87.3098 3.716C88.1498 2.868 89.1778 2.444 90.3938 2.444C91.6098 2.444 92.6378 2.868 93.4778 3.716C94.3258 4.556 94.7498 5.584 94.7498 6.8C94.7498 8.008 94.3258 9.036 93.4778 9.884ZM88.0778 9.128C88.7018 9.752 89.4738 10.064 90.3938 10.064C91.3138 10.064 92.0818 9.752 92.6978 9.128C93.3218 8.496 93.6338 7.72 93.6338 6.8C93.6338 5.872 93.3218 5.096 92.6978 4.472C92.0818 3.84 91.3138 3.524 90.3938 3.524C89.4738 3.524 88.7018 3.84 88.0778 4.472C87.4618 5.096 87.1538 5.872 87.1538 6.8C87.1538 7.72 87.4618 8.496 88.0778 9.128ZM100.891 6.644C101.275 6.828 101.579 7.092 101.803 7.436C102.035 7.78 102.151 8.176 102.151 8.624C102.151 9.296 101.915 9.86 101.443 10.316C100.971 10.772 100.395 11 99.7154 11H96.0914V2.6H99.4514C100.107 2.6 100.663 2.82 101.119 3.26C101.575 3.7 101.803 4.244 101.803 4.892C101.803 5.636 101.499 6.22 100.891 6.644ZM99.4514 3.644H97.2074V6.212H99.4514C99.8034 6.212 100.099 6.088 100.339 5.84C100.579 5.592 100.699 5.288 100.699 4.928C100.699 4.576 100.575 4.276 100.327 4.028C100.087 3.772 99.7954 3.644 99.4514 3.644ZM99.7154 9.956C100.091 9.956 100.407 9.824 100.663 9.56C100.919 9.296 101.047 8.972 101.047 8.588C101.047 8.212 100.915 7.892 100.651 7.628C100.395 7.364 100.083 7.232 99.7154 7.232H97.2074V9.956H99.7154ZM109.006 11L108.322 9.116H104.542L103.858 11H102.67L105.802 2.6H107.062L110.194 11H109.006ZM104.926 8.072H107.938L106.426 3.932L104.926 8.072ZM116.381 2.6H117.485V11H116.381V7.22H112.301V11H111.185V2.6H112.301V6.164H116.381V2.6ZM124.479 2.6H125.583V11H124.479V7.22H120.399V11H119.283V2.6H120.399V6.164H124.479V2.6ZM127.38 11V2.6H128.496V5.6H130.428C131.204 5.6 131.848 5.86 132.36 6.38C132.88 6.9 133.14 7.54 133.14 8.3C133.14 9.068 132.88 9.712 132.36 10.232C131.848 10.744 131.204 11 130.428 11H127.38ZM133.992 11V2.6H135.108V11H133.992ZM128.496 9.956H130.428C130.892 9.956 131.276 9.8 131.58 9.488C131.884 9.176 132.036 8.78 132.036 8.3C132.036 7.82 131.884 7.424 131.58 7.112C131.276 6.8 130.892 6.644 130.428 6.644H128.496V9.956ZM138.456 1.7V0.788H141.696V1.7H138.456ZM142.128 11V4.736L137.808 11H136.908V2.6H138.024V8.876L142.344 2.6H143.244V11H142.128ZM152.121 6.656C152.553 6.84 152.889 7.108 153.129 7.46C153.369 7.812 153.489 8.228 153.489 8.708C153.489 9.428 153.217 10.016 152.673 10.472C152.137 10.928 151.425 11.156 150.537 11.156C149.729 11.156 149.077 10.976 148.581 10.616C148.093 10.256 147.749 9.792 147.549 9.224L148.497 8.684C148.745 9.628 149.425 10.1 150.537 10.1C151.121 10.1 151.573 9.972 151.893 9.716C152.213 9.452 152.373 9.104 152.373 8.672C152.373 8.24 152.221 7.892 151.917 7.628C151.621 7.364 151.205 7.232 150.669 7.232H149.685V6.212H150.393C150.905 6.212 151.313 6.088 151.617 5.84C151.921 5.584 152.073 5.252 152.073 4.844C152.073 4.444 151.929 4.12 151.641 3.872C151.361 3.616 150.969 3.488 150.465 3.488C149.537 3.488 148.917 3.9 148.605 4.724L147.669 4.184C148.173 3.024 149.105 2.444 150.465 2.444C151.273 2.444 151.925 2.668 152.421 3.116C152.925 3.564 153.177 4.132 153.177 4.82C153.177 5.62 152.825 6.232 152.121 6.656ZM160.346 11L159.662 9.116H155.882L155.198 11H154.01L157.142 2.6H158.402L161.534 11H160.346ZM156.266 8.072H159.278L157.766 3.932L156.266 8.072ZM166.168 11.156C164.896 11.156 163.844 10.736 163.012 9.896C162.188 9.056 161.776 8.024 161.776 6.8C161.776 5.576 162.188 4.544 163.012 3.704C163.844 2.864 164.896 2.444 166.168 2.444C166.936 2.444 167.64 2.628 168.28 2.996C168.928 3.364 169.432 3.86 169.792 4.484L168.82 5.048C168.58 4.584 168.22 4.216 167.74 3.944C167.268 3.664 166.744 3.524 166.168 3.524C165.2 3.524 164.408 3.836 163.792 4.46C163.184 5.084 162.88 5.864 162.88 6.8C162.88 7.728 163.184 8.504 163.792 9.128C164.408 9.752 165.2 10.064 166.168 10.064C166.744 10.064 167.268 9.928 167.74 9.656C168.22 9.376 168.58 9.008 168.82 8.552L169.792 9.104C169.44 9.728 168.94 10.228 168.292 10.604C167.644 10.972 166.936 11.156 166.168 11.156ZM176.339 2.6V3.656H173.855V11H172.751V3.656H170.279V2.6H176.339ZM180.491 2.6C181.267 2.6 181.911 2.86 182.423 3.38C182.943 3.892 183.203 4.532 183.203 5.3C183.203 6.06 182.943 6.7 182.423 7.22C181.911 7.74 181.267 8 180.491 8H178.559V11H177.443V2.6H180.491ZM180.491 6.956C180.955 6.956 181.339 6.8 181.643 6.488C181.947 6.168 182.099 5.772 182.099 5.3C182.099 4.82 181.947 4.424 181.643 4.112C181.339 3.8 180.955 3.644 180.491 3.644H178.559V6.956H180.491ZM191.447 9.884C190.607 10.732 189.579 11.156 188.363 11.156C187.147 11.156 186.119 10.732 185.279 9.884C184.439 9.036 184.019 8.008 184.019 6.8C184.019 5.584 184.439 4.556 185.279 3.716C186.119 2.868 187.147 2.444 188.363 2.444C189.579 2.444 190.607 2.868 191.447 3.716C192.295 4.556 192.719 5.584 192.719 6.8C192.719 8.008 192.295 9.036 191.447 9.884ZM186.047 9.128C186.671 9.752 187.443 10.064 188.363 10.064C189.283 10.064 190.051 9.752 190.667 9.128C191.291 8.496 191.603 7.72 191.603 6.8C191.603 5.872 191.291 5.096 190.667 4.472C190.051 3.84 189.283 3.524 188.363 3.524C187.443 3.524 186.671 3.84 186.047 4.472C185.431 5.096 185.123 5.872 185.123 6.8C185.123 7.72 185.431 8.496 186.047 9.128ZM195.608 1.7V0.788H198.848V1.7H195.608ZM199.28 11V4.736L194.96 11H194.06V2.6H195.176V8.876L199.496 2.6H200.396V11H199.28ZM211.769 9.944H212.669V12.608H211.553V11H202.193V2.6H203.309V9.944H206.429V2.6H207.533V9.944H210.653V2.6H211.769V9.944ZM219.179 11V4.736L214.859 11H213.959V2.6H215.075V8.876L219.395 2.6H220.295V11H219.179ZM228.199 11H226.831L223.207 6.968V11H222.091V2.6H223.207V6.392L226.711 2.6H228.079L224.371 6.68L228.199 11Z" fill="#5E6F81"/>
<defs>
<linearGradient id="paint0_linear_108_647" x1="108" y1="16" x2="108" y2="66" gradientUnits="userSpaceOnUse">
<stop stop-color="#2CAAD9"/>
<stop offset="1" stop-color="#175A73"/>
</linearGradient>
</defs>
</svg>
