<svg width="42" height="42" viewBox="0 0 42 42" fill="none" xmlns="http://www.w3.org/2000/svg">
<path d="M40.8017 20.9012C40.8018 16.743 39.4994 12.6892 37.0773 9.30917C34.6552 5.92914 31.2353 3.39271 27.2977 2.05611C23.3601 0.719506 19.1028 0.649882 15.1237 1.85702C11.1445 3.06415 7.6434 5.4874 5.11212 8.78641C2.58084 12.0854 1.14653 16.0945 1.01063 20.2505C0.874741 24.4065 2.04409 28.5007 4.35445 31.958C6.66481 35.4153 10.0001 38.0621 13.8919 39.5266C17.7837 40.9911 22.0365 41.1998 26.053 40.1232" stroke="#DAE3EC" stroke-width="2" stroke-linecap="round"/>
<path d="M20.8995 29.7463C25.7844 29.7463 29.7443 25.7863 29.7443 20.9015C29.7443 16.0166 25.7844 12.0566 20.8995 12.0566C16.0147 12.0566 12.0547 16.0166 12.0547 20.9015C12.0547 25.7863 16.0147 29.7463 20.8995 29.7463Z" stroke="#DAE3EC" stroke-width="2"/>
<path d="M29.7461 14.2676V24.218C29.7461 25.6841 30.3285 27.0902 31.3652 28.1269C32.4019 29.1636 33.808 29.746 35.2741 29.746C36.7402 29.746 38.1463 29.1636 39.183 28.1269C40.2197 27.0902 40.8021 25.6841 40.8021 24.218V20.9012" stroke="#DAE3EC" stroke-width="2" stroke-linecap="round"/>
</svg>
