<svg width="39" height="48" viewBox="0 0 39 48" fill="none" xmlns="http://www.w3.org/2000/svg">
<path d="M1 19.406C1 9.24124 9.09658 1 19.0828 1C29.069 1 37.1656 9.24124 37.1656 19.406C37.1656 29.4917 31.3949 41.2636 22.3897 45.4702C21.3547 45.9548 20.2257 46.206 19.0828 46.206C17.9399 46.206 16.811 45.9548 15.7759 45.4702C6.77068 41.2614 1 29.494 1 19.4083V19.406Z" stroke="#DAE3EC" stroke-width="2"/>
<path d="M19.0818 25.8639C22.8269 25.8639 25.8629 22.8279 25.8629 19.0828C25.8629 15.3377 22.8269 12.3018 19.0818 12.3018C15.3368 12.3018 12.3008 15.3377 12.3008 19.0828C12.3008 22.8279 15.3368 25.8639 19.0818 25.8639Z" stroke="#DAE3EC" stroke-width="2"/>
</svg>
