<svg width="43" height="43" viewBox="0 0 43 43" fill="none" xmlns="http://www.w3.org/2000/svg">
<path d="M33.4341 0.172729L41.954 9.05398V42.8272H10.127V42.9375H42.0627V9.16576L33.4341 0.172729Z" fill="#909090"/>
<path d="M33.3278 0.0625H10.0176V42.8272H41.9533V9.05553L33.3278 0.0625Z" fill="#F4F4F4"/>
<path d="M9.78469 2.35938H0V12.8132H30.7781V2.35938H9.78469Z" fill="#7A7B7C"/>
<path d="M30.9421 12.6356H0.199219V2.17407H30.9421V12.6356Z" fill="#DD2025"/>
<path d="M10.392 3.94271H8.39062V11.2927H9.96475V8.81362L10.3123 8.83352C10.6502 8.82887 10.985 8.76833 11.3031 8.65437C11.5827 8.55942 11.8397 8.40772 12.058 8.20877C12.2818 8.02111 12.4576 7.78279 12.5709 7.51358C12.726 7.06755 12.7809 6.59285 12.7317 6.12321C12.723 5.78764 12.6642 5.45526 12.5572 5.13708C12.4607 4.9071 12.3174 4.69979 12.1362 4.5284C11.9551 4.35701 11.7401 4.22532 11.5052 4.14177C11.3026 4.06675 11.0927 4.01337 10.8789 3.98252C10.7174 3.95622 10.5541 3.94291 10.3904 3.94271M10.101 7.4554H9.96475V5.18915H10.2603C10.3907 5.17974 10.5216 5.19976 10.6432 5.24774C10.7649 5.29571 10.8742 5.3704 10.9631 5.4663C11.1474 5.71286 11.2458 6.01296 11.2433 6.32074C11.2433 6.69743 11.2433 7.0389 10.9034 7.2793C10.6586 7.41416 10.3798 7.47635 10.101 7.4554ZM15.7222 3.9228C15.5523 3.9228 15.3869 3.93505 15.2705 3.93965L14.9061 3.94883H13.7117V11.2988H15.1174C15.6545 11.3126 16.1892 11.2216 16.6915 11.0309C17.096 10.8711 17.4539 10.6127 17.7328 10.279C18.006 9.94391 18.2011 9.55211 18.3039 9.13211C18.4247 8.65731 18.4834 8.16885 18.4785 7.67896C18.5085 7.10038 18.4637 6.52036 18.3453 5.95324C18.2319 5.53627 18.0221 5.15178 17.7328 4.83083C17.5058 4.5713 17.2267 4.36259 16.9136 4.21833C16.6453 4.094 16.3631 4.00248 16.0729 3.94577C15.9575 3.92686 15.8407 3.91815 15.7238 3.91974M15.4451 9.94827H15.292V5.25652H15.3119C15.6276 5.22002 15.947 5.27699 16.2306 5.42037C16.4384 5.58624 16.6076 5.79521 16.7268 6.03287C16.8553 6.28297 16.9294 6.55748 16.9442 6.8383C16.958 7.17518 16.9442 7.4508 16.9442 7.67896C16.9499 7.94177 16.9329 8.20457 16.8937 8.46449C16.8455 8.73103 16.7583 8.98901 16.6349 9.23012C16.4955 9.45497 16.305 9.64382 16.079 9.78137C15.8902 9.90387 15.6664 9.9609 15.442 9.94368M23.2208 3.94883H19.4998V11.2988H21.074V8.38333H23.0646V7.01746H21.074V5.31471H23.2177V3.94883" fill="#464648"/>
<path d="M29.8838 28.0154C29.8838 28.0154 34.7654 27.1304 34.7654 28.7979C34.7654 30.4654 31.7412 29.7871 29.8838 28.0154ZM26.2746 28.1425C25.4989 28.3135 24.743 28.5644 24.0191 28.8913L24.6316 27.5132C25.2441 26.1351 25.8796 24.2562 25.8796 24.2562C26.6086 25.4875 27.4591 26.6428 28.4184 27.7046C27.6963 27.8122 26.9806 27.9594 26.2746 28.1456V28.1425ZM24.3422 18.1894C24.3422 16.7363 24.8123 16.3397 25.1783 16.3397C25.5442 16.3397 25.9561 16.5158 25.9699 17.7775C25.8505 19.0462 25.5849 20.2969 25.1783 21.5046C24.6194 20.4913 24.3309 19.3511 24.3407 18.194L24.3422 18.1894ZM17.2234 34.292C15.7259 33.3963 20.364 30.6385 21.2047 30.5497C21.2001 30.5512 18.7914 35.2292 17.2234 34.292ZM36.191 28.9954C36.1757 28.8423 36.0379 27.1472 33.0213 27.2192C31.7639 27.1971 30.507 27.2858 29.2652 27.4841C28.0614 26.2725 27.0253 24.9052 26.1843 23.4186C26.7138 21.8863 27.0347 20.2897 27.1383 18.6718C27.0939 16.8343 26.6544 15.7808 25.2456 15.7961C23.8369 15.8114 23.6317 17.044 23.817 18.8785C23.9983 20.1112 24.3407 21.3149 24.8353 22.4585C24.8353 22.4585 24.1845 24.4844 23.3239 26.4995C22.4634 28.5146 21.8754 29.5712 21.8754 29.5712C20.3787 30.0578 18.9699 30.7816 17.7027 31.7149C16.4409 32.8894 15.928 33.7913 16.5925 34.6932C17.1652 35.4711 19.1696 35.6472 20.9612 33.2998C21.9115 32.0862 22.781 30.8115 23.5643 29.4839C23.5643 29.4839 26.2961 28.7351 27.1459 28.5299C27.9958 28.3248 29.0232 28.1624 29.0232 28.1624C29.0232 28.1624 31.5176 30.6722 33.9232 30.5833C36.3288 30.4945 36.2124 29.1455 36.1971 28.9985" fill="#DD2025"/>
<path d="M33.2109 0.18042V9.17345H41.8365L33.2109 0.18042Z" fill="#909090"/>
<path d="M33.3281 0.0625V9.05553H41.9537L33.3281 0.0625Z" fill="#F4F4F4"/>
<path d="M10.2748 3.82479H8.27344V11.1748H9.85369V8.69723L10.2028 8.71713C10.5407 8.71248 10.8754 8.65194 11.1935 8.53798C11.4732 8.44303 11.7302 8.29133 11.9484 8.09238C12.1706 7.9042 12.3448 7.66593 12.4568 7.3972C12.6118 6.95116 12.6667 6.47646 12.6176 6.00682C12.6089 5.67125 12.55 5.33887 12.443 5.0207C12.3466 4.79072 12.2032 4.5834 12.0221 4.41201C11.841 4.24062 11.626 4.10894 11.3911 4.02538C11.1876 3.94963 10.9766 3.89573 10.7617 3.8646C10.6002 3.8383 10.4369 3.82499 10.2732 3.82479M9.98384 7.33748H9.84756V5.07123H10.1446C10.2751 5.06182 10.4059 5.08184 10.5276 5.12982C10.6492 5.17779 10.7586 5.25248 10.8475 5.34838C11.0317 5.59494 11.1301 5.89504 11.1277 6.20282C11.1277 6.57951 11.1277 6.92098 10.7878 7.16138C10.5429 7.29625 10.2641 7.3569 9.98538 7.33595M15.6051 3.80488C15.4351 3.80488 15.2697 3.81713 15.1533 3.82173L14.7935 3.83091H13.5991V11.1809H15.0048C15.5419 11.1947 16.0766 11.1037 16.5789 10.9129C16.9834 10.7532 17.3413 10.4947 17.6202 10.1611C17.8934 9.82599 18.0886 9.43419 18.1913 9.0142C18.3121 8.5394 18.3708 8.05093 18.3659 7.56104C18.3959 6.98246 18.3511 6.40244 18.2327 5.83532C18.1193 5.41835 17.9095 5.03387 17.6202 4.71291C17.3933 4.45338 17.1141 4.24467 16.801 4.10041C16.5327 3.97608 16.2505 3.88456 15.9603 3.82785C15.8449 3.80894 15.7281 3.80023 15.6112 3.80182M15.3325 9.83035H15.1794V5.1386H15.1993C15.515 5.1021 15.8344 5.15907 16.118 5.30245C16.3258 5.46832 16.495 5.67729 16.6142 5.91495C16.7427 6.16505 16.8168 6.43956 16.8316 6.72038C16.8454 7.05726 16.8316 7.33288 16.8316 7.56104C16.8373 7.82385 16.8203 8.08665 16.7811 8.34657C16.7329 8.61311 16.6457 8.87109 16.5223 9.1122C16.3829 9.33705 16.1924 9.5259 15.9664 9.66345C15.7777 9.78595 15.5538 9.84298 15.3294 9.82576M23.1036 3.83091H19.3827V11.1809H20.9568V8.26541H22.9474V6.89954H20.9568V5.19679H23.1005V3.83091" fill="white"/>
</svg>
